<?xml version="1.0" encoding="UTF-8" standalone="no"?>
<svg
   width="72"
   height="72"
   viewBox="0 0 24 24"
   fill="none"
   data-reactroot=""
   version="1.1"
   id="svg2"
   sodipodi:docname="device-location.svg"
   inkscape:version="1.3.1 (91b66b0783, 2023-11-16)"
   xmlns:inkscape="http://www.inkscape.org/namespaces/inkscape"
   xmlns:sodipodi="http://sodipodi.sourceforge.net/DTD/sodipodi-0.dtd"
   xmlns="http://www.w3.org/2000/svg"
   xmlns:svg="http://www.w3.org/2000/svg">
  <defs
     id="defs2" />
  <sodipodi:namedview
     id="namedview2"
     pagecolor="#ffffff"
     bordercolor="#000000"
     borderopacity="0.25"
     inkscape:showpageshadow="2"
     inkscape:pageopacity="0.0"
     inkscape:pagecheckerboard="0"
     inkscape:deskcolor="#d1d1d1"
     inkscape:zoom="25.861111"
     inkscape:cx="35.980666"
     inkscape:cy="35.961332"
     inkscape:window-width="3840"
     inkscape:window-height="2120"
     inkscape:window-x="-12"
     inkscape:window-y="-12"
     inkscape:window-maximized="1"
     inkscape:current-layer="svg2" />
  <path
     stroke-linejoin="round"
     stroke-linecap="round"
     stroke-miterlimit="10"
     stroke-width="1.06506"
     stroke="#221b38"
     fill="none"
     d="M 16.260242,22.650606 H 7.7397576 c -1.1715667,0 -2.1301213,-0.958555 -2.1301213,-2.130121 V 3.4795152 c 0,-1.1715667 0.9585546,-2.1301213 2.1301213,-2.1301213 h 8.5204844 c 1.171567,0 2.130121,0.9585546 2.130121,2.1301213 V 20.520485 c 0,1.171566 -0.958554,2.130121 -2.130121,2.130121 z"
     clip-rule="evenodd"
     fill-rule="evenodd"
     id="path4"
     inkscape:label="outer border"
     style="fill:none;fill-opacity:1;stroke:#eaeaea;stroke-opacity:1" />
  <path
     stroke-linejoin="round"
     stroke-linecap="round"
     stroke-miterlimit="10"
     stroke-width="1"
     stroke="#221b38"
     fill="none"
     d="M16 22H8C6.9 22 6 21.1 6 20V4C6 2.9 6.9 2 8 2H16C17.1 2 18 2.9 18 4V20C18 21.1 17.1 22 16 22Z"
     clip-rule="evenodd"
     fill-rule="evenodd"
     id="path1" />
  <path
     stroke-linecap="round"
     stroke-miterlimit="10"
     stroke-width="1"
     stroke="#221b38"
     d="M13.47 3H10.53C10.51 3 10.5 2.99 10.5 2.97V2H13.5V2.97C13.5 2.99 13.49 3 13.47 3Z"
     id="path2" />
  <path
     fill="#ff7373"
     d="m 12.080889,7.110052 h -0.0059 -0.0059 c -2.1811425,0 -4.0498448,1.7390135 -4.1205846,3.83762 -0.017679,0.64255 0.170953,1.344051 0.4362276,1.886386 0,0 0.00589,0.0059 0.00589,0.01179 l 3.1656,5.753483 c 0.106102,0.200429 0.312433,0.300642 0.518757,0.300642 0.206323,0 0.412647,-0.100209 0.518756,-0.300642 l 3.165595,-5.753483 c 0,-0.0059 0.0059,-0.01179 0.0059,-0.01179 0.265274,-0.542335 0.453912,-1.243836 0.436227,-1.886386 -0.07073,-2.0986065 -1.939432,-3.83762 -4.120568,-3.83762 z"
     undefined="1"
     id="path1-5"
     style="stroke-width:0.589496" />
  <path
     fill="#ff7373"
     d="m 12.074993,12.710265 c 0.813918,0 1.47374,-0.659823 1.47374,-1.47374 0,-0.813923 -0.659822,-1.4737405 -1.47374,-1.4737405 -0.813917,0 -1.47374,0.6598175 -1.47374,1.4737405 0,0.813917 0.659823,1.47374 1.47374,1.47374 z"
     undefined="1"
     id="path2-7"
     style="stroke-width:0.589496" />
  <path
     stroke-linejoin="round"
     stroke-linecap="round"
     stroke-miterlimit="10"
     stroke-width="0.589496"
     stroke="#ffffff"
     d="m 12.074993,12.710265 c 0.813918,0 1.47374,-0.659823 1.47374,-1.47374 0,-0.813923 -0.659822,-1.4737405 -1.47374,-1.4737405 -0.813917,0 -1.47374,0.6598175 -1.47374,1.4737405 0,0.813917 0.659823,1.47374 1.47374,1.47374 z"
     id="path3" />
</svg>
